<svg width="29" height="32" viewBox="0 0 29 32" fill="none" xmlns="http://www.w3.org/2000/svg">
<g filter="url(#filter0_d)">
<path d="M14.3067 23.8879C14.7049 23.8485 15.0819 23.688 15.3847 23.4276L23.524 16.451C23.9343 16.1225 24.1932 15.641 24.2417 15.1187C24.2901 14.5963 24.1251 14.077 23.7845 13.6773C23.4423 13.2791 22.9548 13.0354 22.4309 13.0036C21.9071 12.9718 21.3923 13.1535 21.0047 13.5077L14.125 19.4065L7.24529 13.5077C6.8577 13.1535 6.34295 12.9718 5.81908 13.0036C5.29521 13.0354 4.80771 13.2791 4.46554 13.6773C4.12489 14.077 3.95985 14.5963 4.0083 15.1187C4.05675 15.641 4.31565 16.1225 4.72596 16.451L12.8653 23.4276C13.2635 23.7698 13.7843 23.9348 14.3067 23.8879Z" fill="white"/>
<path d="M14.3067 10.8879C14.7049 10.8485 15.0819 10.688 15.3847 10.4276L23.524 3.45102C23.9343 3.12248 24.1932 2.64104 24.2417 2.11868C24.2901 1.59633 24.1251 1.07704 23.7845 0.677315C23.4423 0.279144 22.9548 0.0353896 22.4309 0.00356854C21.9071 -0.0282258 21.3923 0.153457 21.0047 0.507745L14.125 6.40646L7.24529 0.507745C6.8577 0.153465 6.34295 -0.0282138 5.81908 0.00356854C5.29521 0.0353629 4.80771 0.279121 4.46554 0.677315C4.12489 1.077 3.95985 1.59633 4.0083 2.11868C4.05675 2.64104 4.31565 3.12246 4.72596 3.45102L12.8653 10.4276C13.2635 10.7698 13.7843 10.9348 14.3067 10.8879Z" fill="white"/>
</g>
<defs>
<filter id="filter0_d" x="0" y="0" width="28.25" height="31.8957" filterUnits="userSpaceOnUse" color-interpolation-filters="sRGB">
<feFlood flood-opacity="0" result="BackgroundImageFix"/>
<feColorMatrix in="SourceAlpha" type="matrix" values="0 0 0 0 0 0 0 0 0 0 0 0 0 0 0 0 0 0 127 0"/>
<feOffset dy="4"/>
<feGaussianBlur stdDeviation="2"/>
<feColorMatrix type="matrix" values="0 0 0 0 0 0 0 0 0 0 0 0 0 0 0 0 0 0 0.25 0"/>
<feBlend mode="normal" in2="BackgroundImageFix" result="effect1_dropShadow"/>
<feBlend mode="normal" in="SourceGraphic" in2="effect1_dropShadow" result="shape"/>
</filter>
</defs>
</svg>
